<svg width="336" height="322" viewBox="0 0 336 322" fill="none" xmlns="http://www.w3.org/2000/svg">
<g clip-path="url(#clip0_1048_973)">
<path d="M163.926 0C164.667 0.100796 165.405 0.279627 166.149 0.292633C180.302 0.549499 194.105 2.9751 207.628 7.05895C216.602 9.76743 225.3 13.214 233.648 17.5059C245.725 23.7163 256.86 31.2954 267.079 40.2793C280.449 52.0366 291.47 65.67 300.389 81.0462C300.646 81.4884 300.857 81.9599 301.224 82.685C300.363 82.7598 299.801 82.8508 299.236 82.8508C284.413 82.8508 269.59 82.8183 254.767 82.8768C253.127 82.8833 252.158 82.0867 251.213 81.0105C245.595 74.6018 239.356 68.876 232.494 63.8167C216.557 52.0724 198.823 44.6818 179.272 41.5831C170.899 40.2565 162.467 39.8858 154.049 40.3605C133.41 41.5246 114.259 47.5788 96.6969 58.5818C90.1693 62.6722 84.1453 67.3803 78.4884 72.6184C68.6693 81.7095 60.7153 92.1923 54.3468 103.943C47.2993 116.946 42.8836 130.8 41.0413 145.429C40.2875 151.418 39.8814 157.511 40.0243 163.539C40.4077 179.602 43.7089 195.069 50.2723 209.811C55.1526 220.775 61.4431 230.832 69.2607 239.9C79.213 251.45 90.9588 260.788 104.446 267.951C117.004 274.623 130.313 278.902 144.376 280.827C158.705 282.787 172.943 282.199 187.077 279.061C205.074 275.062 221.317 267.313 235.691 255.823C240.653 251.856 245.043 247.171 249.731 242.853C250.205 242.417 250.92 242.238 251.534 241.965C251.671 241.903 251.856 241.952 252.019 241.949C267.267 241.848 282.519 241.747 297.767 241.653C298.349 241.65 298.934 241.708 299.749 241.75C299.545 242.306 299.463 242.71 299.262 243.041C294.606 250.802 289.492 258.239 283.533 265.067C280.654 268.364 277.902 271.823 274.685 274.759C268.703 280.219 262.679 285.694 256.22 290.558C237.3 304.803 216.086 314.177 192.877 318.797C185.849 320.195 178.668 320.973 171.516 321.538C165.333 322.026 159.078 322.127 152.882 321.841C140.1 321.252 127.538 319.126 115.237 315.487C105.869 312.717 96.8399 309.105 88.1353 304.712C77.8191 299.503 68.1494 293.241 59.2726 285.831C54.7952 282.095 50.3698 278.251 46.2888 274.096C35.9336 263.551 27.1315 251.807 19.98 238.834C10.632 221.874 4.54304 203.815 1.72598 184.671C1.01766 179.868 0.770718 174.994 0.299584 170.156C0.247596 169.626 0.104632 169.106 0.00390625 168.579C0.00390625 163.598 0.00390625 158.617 0.00390625 153.639C0.104632 153.222 0.254095 152.81 0.293085 152.39C0.734977 147.766 1.00791 143.123 1.61551 138.526C3.682 122.854 8.1854 107.868 14.804 93.5384C21.7021 78.6076 30.7024 65.0165 41.8244 52.908C50.5517 43.4039 60.2311 34.9501 70.9405 27.7026C84.9348 18.231 100.027 11.1135 116.26 6.43142C128.932 2.77026 141.845 0.604774 155.053 0.295884C155.634 0.282878 156.209 0.104047 156.788 0C159.169 0 161.548 0 163.929 0H163.926Z" fill="#E4032E"/>
<path d="M321.64 176.171V173.807C321.64 158.164 321.64 142.518 321.64 126.875C321.64 125.208 322.489 124.374 324.188 124.372C327.326 124.372 330.462 124.368 333.601 124.372C335.95 124.375 335.995 124.417 335.999 126.706C336.005 132.12 335.999 137.534 335.999 142.947C335.999 161.299 335.999 179.65 335.999 198.001C335.999 200.433 335.973 200.456 333.562 200.459C330.533 200.463 327.502 200.394 324.474 200.489C323.054 200.531 322.212 200.004 321.436 198.837C310.551 182.482 299.624 166.156 288.703 149.824C288.359 149.31 287.995 148.81 287.335 148.406C287.335 149.632 287.306 150.858 287.339 152.084C287.543 159.761 287.761 167.434 287.979 175.111C288.193 182.732 288.424 190.354 288.615 197.975C288.677 200.437 288.615 200.456 286.231 200.459C282.66 200.463 279.089 200.424 275.521 200.479C274.17 200.498 273.575 200.085 273.578 198.632C273.607 174.49 273.604 150.344 273.581 126.202C273.581 124.898 274.014 124.342 275.365 124.362C278.936 124.414 282.507 124.326 286.075 124.43C286.757 124.45 287.68 124.924 288.053 125.484C294.471 135.124 300.819 144.81 307.185 154.483C311.763 161.445 316.344 168.41 320.929 175.368C321.043 175.54 321.205 175.683 321.644 176.177L321.64 176.171Z" fill="#E4032E"/>
<path d="M136.7 149.325C136.7 155.925 136.667 162.529 136.716 169.13C136.735 171.614 136.856 174.101 137.07 176.575C137.528 181.879 140.771 185.816 145.957 187.406C150.031 188.655 154.167 188.694 158.287 187.66C163.392 186.375 166.358 182.961 166.813 177.707C167.138 173.942 167.392 170.16 167.414 166.382C167.486 153.178 167.44 139.974 167.444 126.769C167.444 124.412 167.483 124.373 169.77 124.37C173.825 124.363 177.883 124.402 181.938 124.35C183.277 124.334 183.748 124.857 183.745 126.171C183.719 139.157 183.807 152.147 183.686 165.133C183.638 170.258 183.319 175.398 182.803 180.497C181.763 190.758 175.914 197.326 166.206 200.071C156.494 202.812 146.529 202.756 136.94 199.606C127.94 196.647 122.436 190.163 121.389 180.506C120.837 175.411 120.502 170.271 120.447 165.15C120.317 152.381 120.402 139.606 120.405 126.838C120.405 124.402 120.431 124.376 122.835 124.373C126.783 124.37 130.731 124.425 134.679 124.347C136.255 124.314 136.732 124.909 136.722 126.438C136.667 134.069 136.696 141.697 136.696 149.328H136.703L136.7 149.325Z" fill="#E4032E"/>
<path d="M256.114 150.757C253.95 150.757 251.786 150.728 249.625 150.77C248.608 150.79 248.04 150.406 247.715 149.428C243.309 136.142 228.317 133.609 218.768 139.257C214.381 141.852 211.616 145.841 210.252 150.702C208.097 158.372 208.049 166.117 210.245 173.775C213.982 186.8 228.405 192.376 239.871 185.291C244.024 182.726 246.516 178.847 247.939 174.279C248.368 172.9 249.005 172.373 250.451 172.435C254.662 172.614 258.876 172.692 263.09 172.773C264.244 172.796 264.575 173.225 264.361 174.389C261.674 188.975 249.548 200.033 234.796 201.458C227.07 202.205 219.525 201.682 212.429 198.352C202.791 193.833 196.832 186.127 194.376 175.882C191.757 164.96 191.855 153.983 196.283 143.539C201.277 131.759 210.307 124.889 223.187 123.403C228.606 122.778 233.977 122.928 239.29 124.232C251.182 127.155 258.951 134.598 263.061 146.023C263.428 147.041 263.688 148.094 264.013 149.125C264.374 150.27 263.919 150.741 262.769 150.731C260.553 150.712 258.333 150.725 256.117 150.725V150.754L256.114 150.757Z" fill="#E4032E"/>
<path d="M91.1787 162.417C91.1787 150.565 91.1787 138.717 91.1787 126.865C91.1787 125.203 92.03 124.37 93.7325 124.368C97.3002 124.368 100.871 124.417 104.439 124.345C105.94 124.313 106.547 124.768 106.544 126.368C106.505 150.393 106.508 174.418 106.544 198.443C106.544 200.027 105.972 200.508 104.452 200.479C100.722 200.404 96.9882 200.462 93.2582 200.449C91.2956 200.443 91.1787 200.326 91.1787 198.294C91.1722 186.335 91.1787 174.376 91.1787 162.42V162.417Z" fill="#E4032E"/>
</g>
<defs>
<clipPath id="clip0_1048_973">
<rect width="336" height="322" fill="white"/>
</clipPath>
</defs>
</svg>
