<svg width="1692" height="727" viewBox="0 0 1692 727" fill="none" xmlns="http://www.w3.org/2000/svg">
<g clip-path="url(#clip0_1056_6104)">
<path d="M-0.0034375 338.17C1.31656 327.8 2.33656 317.39 4.00656 307.08C14.8066 240.31 41.7666 180.89 85.4466 129.11C117.887 90.6605 156.637 60.1505 201.657 37.8005C242.957 17.3005 286.657 5.13045 332.707 1.33045C401.477 -4.33955 466.787 8.10045 528.137 39.4105C595.757 73.9205 647.677 124.89 683.927 191.66C705.467 231.33 719.207 273.61 724.347 318.36C735.127 412.18 713.737 498.15 658.827 575.28C622.557 626.22 575.737 664.93 519.307 691.86C481.857 709.73 442.417 720.77 401.067 724.89C396.297 725.37 391.547 726.06 386.787 726.65H340.807C339.517 726.37 338.247 725.93 336.947 725.85C306.687 723.99 277.177 718.1 248.537 708.35C165.517 680.09 100.587 628.71 53.9766 554.48C27.5166 512.34 10.9066 466.46 3.67656 417.23C2.25656 407.55 1.19656 397.82 -0.0234375 388.11C-0.0234375 371.47 -0.0234375 354.82 -0.0234375 338.18L-0.0034375 338.17ZM519.137 422.63C517.347 421.51 516.837 421.01 516.237 420.84C501.487 416.71 486.867 411.98 471.927 408.73C462.707 406.72 454.257 410.27 447.577 417.37C444.397 420.75 441.227 424.31 437.447 426.91C423.267 436.67 407.237 438.27 390.987 434.84C369.457 430.29 353.717 418.3 347.577 396.19C344.867 386.44 345.237 386.21 355.457 386.21C405.427 386.21 455.397 386.22 505.367 386.2C516.287 386.2 521.977 381.14 523.347 370.33C523.537 368.85 523.687 367.32 523.517 365.85C521.887 351.17 521.567 336.18 518.227 321.89C509.887 286.23 489.217 259.78 455.007 245.2C432.197 235.48 408.167 232.4 383.577 235.34C341.007 240.43 309.247 262.21 288.487 299.39C272.107 328.72 268.617 360.56 274.177 393.3C280.907 432.94 301.087 463.86 336.557 483.74C367.397 501.03 400.507 504.69 434.757 497.34C464.997 490.85 489.707 475.43 506.267 448.77C511.367 440.55 514.897 431.36 519.137 422.65V422.63ZM107.127 340.85C107.127 371.13 106.917 401.42 107.187 431.7C107.427 458.08 118.987 477.59 143.497 488.7C154.187 493.54 165.557 493.06 176.887 492.96C183.697 492.9 183.717 492.92 183.717 485.94C183.717 451.66 183.507 417.39 183.867 383.11C183.957 374.22 184.997 365.13 187.127 356.5C191.767 337.69 202.877 323.73 221.907 318C230.057 315.54 238.887 315.06 247.457 314.38C257.507 313.58 266.247 306.52 266.537 296.72C267.047 278.93 266.747 261.12 266.807 243.32C266.807 240.59 265.527 239.4 262.837 239.43C259.007 239.48 255.177 239.46 251.347 239.41C229.447 239.15 209.547 244.46 192.977 259.69C188.057 264.21 182.067 261.6 180.947 254.87C179.417 245.68 175.487 242.25 166.177 242.23C148.687 242.18 131.207 242.2 113.717 242.23C107.187 242.23 107.117 242.32 107.117 249.02C107.107 279.64 107.117 310.25 107.117 340.87L107.127 340.85ZM648.627 288.04C648.777 260.41 626.237 237.54 598.747 237.42C571.127 237.3 548.077 259.92 547.957 287.26C547.837 314.17 571.427 337.98 598.217 337.99C625.027 338 648.477 314.76 648.627 288.04ZM648.627 447.42C648.627 420.01 625.797 397.14 598.307 397.23C571.787 397.31 548.567 417.77 548.077 447.5C547.647 474.12 571.557 497.72 598.157 497.77C625.167 497.82 648.627 474.41 648.627 447.41V447.42Z" fill="#E4032E"/>
<path d="M1181.47 241.61C1180.98 243.93 1180.74 245.7 1180.22 247.38C1155.61 326.85 1130.98 406.31 1106.34 485.77C1103.77 494.07 1103.73 494.06 1095.07 494.06C1076.42 494.06 1057.76 494.06 1039.11 494.06C1028.72 494.06 1025.55 491.79 1022.27 482.05C1007.35 437.73 992.443 393.42 977.523 349.1C977.103 347.84 976.943 346.33 976.123 345.4C975.023 344.14 973.413 342.57 972.003 342.55C970.603 342.53 968.773 343.99 967.853 345.31C966.753 346.89 966.383 348.99 965.753 350.89C950.743 396.23 935.633 441.53 920.883 486.95C919.043 492.62 916.393 494.31 910.613 494.2C891.133 493.84 871.643 494.07 852.153 494.06C842.293 494.06 838.683 491.52 835.733 482.13C812.313 407.69 788.923 333.24 765.573 258.79C762.423 248.74 768.063 241.18 778.663 241.15C797.483 241.09 816.303 241.29 835.123 241.02C839.863 240.95 841.813 242.61 843.053 247.07C854.163 286.98 865.483 326.83 876.743 366.7C877.423 369.1 877.753 371.7 878.933 373.83C879.843 375.48 881.713 377.37 883.373 377.6C884.663 377.78 886.583 375.79 887.693 374.36C888.663 373.11 888.913 371.3 889.433 369.72C902.443 330.73 915.443 291.74 928.463 252.75C931.563 243.45 934.753 241.14 944.523 241.13C965.843 241.12 987.163 241.26 1008.48 241.02C1013.26 240.97 1015.5 242.42 1017.01 247.07C1030.13 287.59 1043.51 328.04 1056.81 368.5C1057.33 370.08 1057.5 371.95 1058.47 373.17C1059.95 375.03 1061.86 377.43 1063.85 377.71C1065.11 377.89 1067.7 374.88 1068.27 372.89C1079.67 333.06 1090.87 293.18 1102.11 253.3C1104.82 243.67 1108.16 241.13 1118.11 241.12C1136.93 241.11 1155.75 241.1 1174.57 241.14C1176.67 241.14 1178.77 241.42 1181.47 241.61V241.61Z" fill="#E4032E"/>
<path d="M1691.23 314.7C1691.23 371.94 1691.23 429.18 1691.23 486.42C1691.23 491.507 1688.63 494.053 1683.44 494.06C1665.45 494.06 1647.47 494.08 1629.48 494.06C1620.49 494.04 1616.42 490.83 1614.23 482.17C1613.09 477.66 1611.49 477.04 1607.68 479.94C1574.48 505.23 1538.11 505.01 1501.64 490.37C1455.32 471.78 1431.54 434.91 1425.18 386.45C1421.07 355.19 1425.24 324.84 1440.9 297.05C1463.2 257.47 1497.37 236.73 1542.96 235.15C1559.77 234.56 1576.24 236.33 1591.86 243.01C1595.36 244.51 1598.69 246.45 1601.96 248.43C1604.84 250.17 1608.06 252.96 1610.92 250.24C1612.94 248.32 1614 244.49 1614.01 241.51C1614.21 206.07 1614.14 170.63 1614.14 135.18C1614.14 128.773 1617.31 125.57 1623.65 125.57C1639.47 125.57 1655.29 125.53 1671.11 125.58C1685.37 125.62 1691.22 131.45 1691.22 145.49C1691.22 201.9 1691.22 258.31 1691.22 314.71L1691.23 314.7ZM1615.16 367.13C1615.6 367.03 1616.04 366.92 1616.49 366.82C1614.37 357.49 1613.31 347.76 1609.92 338.91C1602.18 318.7 1586.42 307.78 1565.16 305.73C1544.69 303.75 1526.3 309.39 1514.35 327.02C1498.8 349.96 1498.55 374.83 1509.64 399.69C1516.76 415.63 1529.77 425.19 1546.88 428.39C1568.82 432.49 1587.92 427.04 1602.27 409.23C1612.09 397.04 1615.18 382.5 1615.17 367.15L1615.16 367.13Z" fill="#E4032E"/>
<path d="M1398.18 316.72C1398.18 372.96 1398.18 429.2 1398.18 485.44C1398.18 494.05 1398.16 493.81 1389.69 494.11C1375.62 494.62 1362.01 493.16 1349.76 485.6C1329.86 473.32 1319.59 455.13 1319.53 432.02C1319.26 332.02 1319.41 232.02 1319.43 132.01C1319.43 126.01 1319.92 125.56 1326.07 125.55C1342.72 125.52 1359.38 125.53 1376.03 125.55C1392.1 125.56 1398.18 131.57 1398.18 147.5C1398.19 203.91 1398.18 260.31 1398.18 316.72V316.72Z" fill="#E4032E"/>
<path d="M1286.35 374.561C1286.35 412.011 1286.35 449.451 1286.35 486.901C1286.35 494.041 1286.31 493.821 1279.06 494.111C1263.79 494.731 1249.06 493.151 1236 484.321C1218.39 472.421 1208.38 455.941 1208.3 434.551C1208.04 372.311 1208.2 310.061 1208.21 247.811C1208.21 241.161 1208.25 241.131 1214.89 241.121C1231.88 241.101 1248.87 241.081 1265.86 241.121C1278.69 241.151 1286.31 248.711 1286.33 261.701C1286.4 299.311 1286.36 336.931 1286.36 374.541L1286.35 374.561Z" fill="#E4032E"/>
<path d="M1292.51 164.411C1292.51 189.401 1271.43 210.431 1246.65 210.191C1221.86 209.941 1201.3 189.091 1201.36 164.251C1201.42 139.451 1222.36 118.391 1246.86 118.491C1272.11 118.591 1292.51 139.111 1292.51 164.411V164.411Z" fill="#E4032E"/>
<path d="M398.594 338.07C383.774 338.07 368.954 338.1 354.124 338.05C347.764 338.03 347.054 337.02 348.664 330.96C355.224 306.19 379.044 290.95 405.474 294.46C419.454 296.32 432.494 300.38 440.674 312.67C444.524 318.46 446.474 325.56 448.994 332.18C450.674 336.61 448.404 338.12 444.064 338.09C428.914 337.98 413.754 338.05 398.604 338.05L398.594 338.07Z" fill="#E4032E"/>
</g>
<defs>
<clipPath id="clip0_1056_6104">
<rect width="1691.23" height="726.64" fill="white"/>
</clipPath>
</defs>
</svg>
