<svg width="344" height="516" viewBox="0 0 344 516" fill="none" xmlns="http://www.w3.org/2000/svg">
<path d="M0.0116437 161.855C0.192121 158.945 0.334756 156.029 0.558898 153.122C4.13351 106.792 35.5366 66.9368 79.1917 53.6879C79.5963 53.5651 80.0097 53.4744 80.4638 53.4481C54.4459 69.3117 36.9426 91.791 28.5853 121.199C22.4316 142.85 22.7139 164.599 29.1704 186.165C35.6326 207.758 47.7188 225.748 64.5498 240.559C68.0254 243.618 71.7514 246.364 75.8325 248.555C75.981 248.461 76.1323 248.365 76.2808 248.271C76.1644 247.555 76.1411 246.809 75.9169 246.13C73.2098 237.941 71.0411 229.626 69.9874 221.042C69.312 215.55 69.379 210.069 69.9233 204.57C70.9916 193.787 71.1401 182.969 70.5346 172.162C69.1054 146.626 74.6128 122.854 88.0904 101.068C97.3763 86.0615 109.331 73.5701 123.618 63.3073C123.697 63.2517 123.773 63.1903 123.851 63.1318C127.996 60.1135 128.063 58.853 124.78 54.8725C118.611 47.394 114.105 33.2735 124.209 21.0336C128.849 15.4124 133.984 10.262 139.887 6.09134C148.728 -0.155819 158.631 -1.41344 169.008 1.47616C175.104 3.17249 178.99 7.60049 182.11 12.8152C186.421 20.0188 189.367 27.7429 190.701 36.0637C191.743 42.5595 189.033 46.7652 182.754 48.6428C174.874 51.0001 167.952 55.083 161.888 60.6634C159.568 62.8013 157.274 64.9978 154.759 66.8901C150.201 70.3207 145.232 71.7246 139.62 69.4345C138.642 69.0368 137.273 69.1099 136.246 69.455C135.003 69.8703 133.818 70.6688 132.802 71.5316C126.96 76.4948 122.847 82.78 119.444 89.5682C113.89 100.65 110.892 112.492 109.404 124.744C108.38 133.17 107.815 141.631 108.511 150.112C110.833 178.391 123.441 200.175 148.731 213.766C151.636 215.327 154.899 216.354 158.11 217.161C163.853 218.603 168.356 221.686 171.669 226.535C173.06 228.576 174.382 230.703 175.433 232.934C178.969 240.454 182.73 242.334 191.623 241.539C194.517 241.278 197.399 240.869 200.286 240.556C204.72 240.073 208.937 240.767 213.027 242.624C217.615 244.706 222.316 246.514 227.323 247.376C230.781 247.973 233.538 247.008 235.453 243.952C236.126 242.881 236.891 241.866 237.508 240.767C240.367 235.663 244.884 232.996 250.456 232.098C253.405 231.624 256.455 231.238 259.413 231.454C266.236 231.951 272.594 230.378 278.782 227.795C288.592 223.704 297.139 217.606 305.324 210.905C318.484 200.134 325.791 185.879 329.831 169.667C332.605 158.541 333.612 147.226 333.158 135.354C333.511 136.188 333.743 136.671 333.918 137.171C337.248 146.623 339.295 156.38 340.252 166.336C340.898 173.066 341.402 179.845 341.329 186.598C341.251 193.989 340.593 201.385 339.903 208.75C339.024 218.153 338.046 227.55 336.788 236.909C333.377 262.278 328.37 287.287 319.072 311.24C314.013 324.273 307.728 336.638 298.725 347.433C291.445 356.164 282.869 363.136 271.979 366.868C264.647 369.38 257.099 370.009 249.46 369.044C241.179 367.997 236.251 363.127 234.455 354.628C233.293 349.13 233.407 343.59 233.998 338.048C235.037 328.32 236.297 318.616 237.144 308.874C238.047 298.494 236.795 288.249 234.085 278.211C232.493 272.315 226.202 269.753 220.852 272.666C217.184 274.664 214.957 277.939 213.205 281.587C210.521 287.179 209.24 293.168 208.574 299.29C207.15 312.384 207.526 325.451 209.418 338.475C210.597 346.576 213.161 354.157 217.906 360.91C219.97 363.847 221.469 367 221.81 370.679C222.197 374.902 220.893 378.35 217.632 381.021C214.247 383.793 210.25 385.285 206.056 386.186C189.245 389.789 172.912 388.549 157.324 380.901C147.587 376.125 139.608 369.076 132.569 360.896C124.238 351.215 117.898 340.236 112.056 328.94C104.814 314.94 98.8434 300.363 92.7916 285.822C92.3986 284.88 91.9387 283.97 91.4904 283.052C91.4118 282.891 91.2488 282.771 90.8995 282.382C90.521 283.134 90.0116 283.719 89.9476 284.348C89.3014 290.794 88.3466 297.342 89.9738 303.671C90.9839 307.596 93.0565 311.316 95.0679 314.893C97.1871 318.663 98.1622 322.582 98.3165 326.852C98.4504 330.619 96.7737 333.167 93.6503 334.945C90.3959 336.796 86.8329 337.697 83.1826 338.261C75.1397 339.504 67.0764 339.949 59.0423 338.25C47.1075 335.726 38.0633 328.812 30.8966 319.181C23.66 309.456 19.1335 298.418 15.7889 286.857C11.5506 272.21 9.21599 257.23 8.42422 242.012C8.09528 235.692 8.10693 229.351 7.84203 223.028C7.54803 216.009 6.61653 209.145 4.26451 202.412C2.80904 198.247 2.2385 193.691 1.82806 189.257C1.06249 180.968 0.704444 172.644 0.168834 164.335C0.139724 163.902 0.0553076 163.475 0 163.045C0 162.657 0 162.265 0 161.876L0.0116437 161.855ZM205.016 261.851C206.207 261.766 207.997 261.664 209.782 261.503C214 261.122 217.865 259.917 220.718 256.519C221.705 255.343 223.032 254.118 222.24 252.421C221.44 250.705 219.623 250.757 218.034 250.787C215.807 250.827 213.586 251.041 211.362 251.158C205.567 251.468 199.844 251.328 194.444 248.745C193.414 248.251 192.24 248.02 191.111 247.783C189.944 247.537 188.747 247.543 187.918 248.614C187.036 249.751 187.239 250.991 187.781 252.205C188.692 254.246 190.034 255.911 191.882 257.2C195.669 259.847 199.57 262.123 205.016 261.851Z" fill="#E4032E"/>
<path d="M175.382 466.751C177.824 463.125 180.077 459.785 182.324 456.445C183.87 454.146 185.375 451.815 186.982 449.563C187.607 448.685 187.721 447.849 187.54 446.837C186.621 441.643 186.085 436.408 186.495 431.137C186.644 429.224 187.092 427.288 187.715 425.469C188.388 423.504 189.904 422.539 192.102 422.571C197.141 422.647 202.185 422.697 207.221 422.568C209.949 422.498 212.077 423.521 213.299 425.788C214.67 428.329 215.849 431.041 216.653 433.813C219.683 444.269 222.527 454.78 225.444 465.271C225.595 465.815 225.761 466.356 226.008 467.202C226.39 466.4 226.643 465.903 226.867 465.394C232.331 452.879 237.786 440.362 243.25 427.85C244.702 424.524 247.474 422.533 250.44 422.606C253.732 422.688 257.251 425.253 255.537 429.853C249.304 446.565 243.171 463.312 236.956 480.027C233.16 490.228 229.286 500.4 225.435 510.584C224.122 514.053 221.694 515.942 218.725 515.892C216.507 515.854 214.731 514.909 213.637 513.029C212.569 511.192 211.625 509.25 210.877 507.261C205.722 493.521 200.631 479.757 195.516 466C195.383 465.637 195.246 465.274 195.013 464.657C194.707 465.295 194.477 465.739 194.276 466.196C187.692 481.188 181.11 496.186 174.52 511.175C174.208 511.885 173.888 512.605 173.463 513.248C171.242 516.579 166.509 516.933 164.043 513.766C162.725 512.073 161.639 510.084 160.908 508.06C154.242 489.593 147.67 471.094 141.091 452.596C139.17 447.194 137.28 441.777 135.426 436.352C134.474 433.571 133.901 430.719 134.352 427.745C134.821 424.644 136.815 422.688 139.932 422.644C146.427 422.553 152.921 422.547 159.415 422.597C162.119 422.618 163.866 424.188 164.64 426.7C165.968 431.02 167.24 435.36 168.392 439.73C170.675 448.378 172.861 457.053 175.085 465.716C175.143 465.938 175.21 466.161 175.376 466.757L175.382 466.751Z" fill="#E4032E"/>
<path d="M45.9456 466.732C49.3659 461.649 52.4777 456.774 55.866 452.097C57.6562 449.629 58.3374 447.321 57.7407 444.2C56.7597 439.088 56.4948 433.853 57.3244 428.647C57.499 427.553 57.828 426.459 58.253 425.438C59.0593 423.505 60.4915 422.54 62.6805 422.572C67.7688 422.648 72.86 422.677 77.9454 422.572C80.4313 422.522 82.3671 423.458 83.6246 425.453C84.7511 427.24 85.7729 429.188 86.3609 431.206C89.656 442.548 92.8057 453.931 96.0048 465.299C96.1474 465.808 96.29 466.32 96.5433 467.235C96.9363 466.411 97.2012 465.893 97.434 465.361C102.898 452.846 108.353 440.328 113.82 427.816C115.319 424.38 118.201 422.4 121.321 422.619C125.335 422.903 127.475 425.953 126.095 429.732C120.541 444.932 114.943 460.114 109.296 475.278C104.921 487.027 100.467 498.746 96.0048 510.462C95.5972 511.533 95.0005 512.583 94.2844 513.475C91.5132 516.929 86.7247 516.8 84.2679 513.103C83.0977 511.346 82.2186 509.348 81.4705 507.359C76.3124 493.619 71.2241 479.855 66.1125 466.098C65.9611 465.691 65.8039 465.285 65.5594 464.641C65.2538 465.293 65.0267 465.758 64.8171 466.229C58.2501 481.177 51.683 496.126 45.1131 511.074C44.8191 511.741 44.5367 512.422 44.1554 513.036C41.9256 516.616 37.0236 516.987 34.4678 513.615C33.2278 511.977 32.1944 510.079 31.4958 508.143C25.0277 490.226 18.6324 472.28 12.2604 454.329C9.91998 447.733 7.56504 441.141 5.50702 434.455C4.84333 432.3 4.83168 429.837 5.00343 427.55C5.22757 424.576 7.3933 422.686 10.3857 422.642C16.9761 422.543 23.5693 422.528 30.1596 422.607C32.7969 422.639 34.4678 424.283 35.2101 426.731C36.5375 431.101 37.8212 435.488 38.9856 439.904C41.1891 448.272 43.2937 456.665 45.4449 465.048C45.5613 465.501 45.7127 465.946 45.9485 466.724L45.9456 466.732Z" fill="#E4032E"/>
<path d="M292.972 458.629H294.846C302.988 458.629 311.13 458.577 319.272 458.673C320.922 458.694 322.634 459.103 324.197 459.668C326.054 460.337 327.131 461.841 327.262 463.9C327.402 466.102 326.791 468.088 324.788 469.12C323.423 469.825 321.781 470.319 320.259 470.34C311.73 470.454 303.201 470.395 294.672 470.395C294.104 470.395 293.536 470.395 292.832 470.395C292.832 471.162 292.832 471.741 292.832 472.317C292.832 484.203 292.864 496.086 292.8 507.972C292.791 509.648 292.509 511.376 292.02 512.979C291.374 515.097 290.04 515.892 287.854 515.895C281.942 515.901 276.03 515.91 270.118 515.883C267.967 515.875 266.252 514.816 265.542 512.868C264.823 510.9 264.282 508.738 264.276 506.659C264.191 480.796 264.215 454.933 264.229 429.067C264.229 425.481 266.744 423.059 270.811 422.644C271.821 422.541 272.843 422.53 273.861 422.53C292.908 422.524 311.954 422.524 331 422.53C331.533 422.53 332.068 422.536 332.598 422.577C337.55 422.954 340.184 427.23 338.347 431.898C337.576 433.86 336.062 434.857 334.065 435.179C333.402 435.287 332.715 435.284 332.036 435.284C320.791 435.29 309.549 435.284 298.304 435.293C297.629 435.293 296.945 435.322 296.281 435.442C294.223 435.811 293.018 437.036 292.998 439.101C292.937 445.524 292.975 451.949 292.975 458.632L292.972 458.629Z" fill="#E4032E"/>
<path d="M304.719 19.5094C313.231 19.8896 322.007 23.1214 328.845 30.8836C332.862 35.4432 336.862 39.9823 340.113 45.1678C347.958 57.6856 342.526 70.4724 335.962 77.6291C331.121 82.9023 325.253 86.7191 319.32 90.4802C316.881 92.0245 314.087 91.6677 311.42 90.9189C308.006 89.9596 305.284 87.8626 302.897 85.3094C299.677 81.8699 296.612 78.2725 293.253 74.9793C288.875 70.6859 283.656 67.5827 278.035 65.202C272.987 63.0641 270.667 59.0953 271.677 53.6904C272.856 47.3906 275.546 41.667 278.824 36.2387C280.55 33.3784 282.494 30.6116 284.622 28.0408C289.742 21.855 295.215 19.4363 304.722 19.5094H304.719Z" fill="#E4032E"/>
<path d="M289.271 176.711C289.437 190.1 283.862 198.731 273.558 202.951C267.762 205.323 262.56 204.373 257.955 200.155C254.683 197.16 252.183 193.534 250.439 189.504C247.086 181.756 243.887 173.938 240.836 166.065C239.188 161.818 239.858 157.645 242.347 153.796C243.796 151.553 245.153 149.242 246.664 147.043C255.347 134.402 274.283 136.373 280.526 148.137C285.58 157.654 288.846 167.688 289.271 176.711V176.711Z" fill="#E4032E"/>
<path d="M141.347 167.576C141.422 162.013 142.619 157.576 144.554 153.335C148.313 145.1 153.637 137.978 159.968 131.564C169.565 121.842 187.939 125.589 192.765 139.762C193.81 142.833 194.48 146.038 195.219 149.209C196.046 152.745 195.531 156.172 193.455 159.121C190.693 163.048 187.738 166.845 184.731 170.591C180.897 175.367 176.956 180.061 172.173 183.945C169.749 185.914 167.143 187.566 164.145 188.54C160.166 189.836 156.309 189.505 152.865 187.177C145.675 182.316 141.518 175.628 141.344 167.576H141.347Z" fill="#E4032E"/>
<path d="M199.669 210.439C208.291 210.857 216.904 211.386 225.154 214.241C226.822 214.817 228.426 215.718 229.884 216.727C231.619 217.929 231.805 219.049 231.051 221.053C230.187 223.351 228.423 224.401 226.088 224.77C223.037 225.252 219.94 225.606 216.974 226.419C213.207 227.452 210.005 229.514 207.726 232.854C206.838 234.155 205.758 234.141 205.147 232.836C202.306 226.75 196.985 223.989 191.014 222.076C190.278 221.839 189.483 221.757 188.779 221.453C187.812 221.032 186.779 220.617 186.002 219.938C183.076 217.376 183.676 213.662 187.216 212.153C190.586 210.717 194.19 210.62 197.773 210.442C198.402 210.41 199.034 210.436 199.663 210.436L199.669 210.439Z" fill="#E4032E"/>
</svg>
